{"title":"The.Dyatlov.Pass.Incident.2013.WEBRip XViD juggs","uid":8627279,"size":749452561,"categoryP":"video","categoryS":"movies","magnet":"?xt=urn:btih:b36e08f3bade06f5e10c99063baceb534cf8a8d9&amp;dn=The.Dyatlov.Pass.Incident.2013.WEBRip+XViD+juggs&amp;tr=udp%3A%2F%2Ftracker.openbittorrent.com%3A80&amp;tr=udp%3A%2F%2Fopen.demonii.com%3A1337&amp;tr=udp%3A%2F%2Ftracker.coppersurfer.tk%3A6969&amp;tr=udp%3A%2F%2Fexodus.desync.com%3A6969","seeders":5,"leechers":1,"uploader":"juggs99","files":3,"time":1372541583,"description":"Source : JYK(Thanks)\n &lt;a href=&quot;\nhttp://www.imdb.com/title/tt1905040/&quot; rel=&quot;nofollow&quot; target=&quot;_NEW&quot;&gt;\nhttp://www.imdb.com/title/tt1905040/&lt;/a&gt;\n\nFormat                                   : AVI\nFormat/Info                              : Audio Video Interleave\nFile size                                : 699 MiB\nDuration                                 : 1h 37mn\nOverall bit rate                         : 1 006 Kbps\nWriting library                          : VirtualDub build 32842/release\n\nVideo\nID                                       : 0\nFormat                                   : MPEG-4 Visual\nFormat profile                           : Advanced Simple@L5\nFormat settings, BVOP                    : 2\nFormat settings, QPel                    : No\nFormat settings, GMC                     : No warppoints\nFormat settings, Matrix                  : Default (H.263)\nMuxing mode                              : Packed bitstream\nCodec ID                                 : XVID\nCodec ID/Hint                            : XviD\nDuration                                 : 1h 37mn\nBit rate                                 : 866 Kbps\nWidth                                    : 640 pixels\nHeight                                   : 288 pixels\nDisplay aspect ratio                     : 2.222\nFrame rate                               : 29.970 fps\nColor space                              : YUV\nChroma subsampling                       : 4:2:0\nBit depth                                : 8 bits\nScan type                                : Progressive\nCompression mode                         : Lossy\nBits/(Pixel*Frame)                       : 0.157\nStream size                              : 602 MiB (86%)\nWriting library                          : XviD 1.2.1 (UTC 2008-12-04)\n\nAudio\nID                                       : 1\nFormat                                   : MPEG Audio\nFormat version                           : Version 1\nFormat profile                           : Layer 3\nMode                                     : Joint stereo\nMode extension                           : MS Stereo\nCodec ID                                 : 55\nCodec ID/Hint                            : MP3\nDuration                                 : 1h 37mn\nBit rate mode                            : Constant\nBit rate                                 : 128 Kbps\nChannel(s)                               : 2 channels\nSampling rate                            : 44.1 KHz\nCompression mode                         : Lossy\nStream size                              : 88.9 MiB (13%)\nAlignment                                : Split accross interleaves\nInterleave, duration                     : 33 ms (1.00 video frame)\nInterleave, preload duration             : 500 ms\nWriting library                          : LAME3.98\n\nPlot\nFive young filmmakers retrace the steps of a doomed group of hikers in pursuit of an unsolvable mystery.\n\n &lt;a href=&quot;\nhttp://img17.imageshack.us/img17/5903/w83.png&quot; rel=&quot;nofollow&quot; target=&quot;_NEW&quot;&gt;\nhttp://img17.imageshack.us/img17/5903/w83.png&lt;/a&gt; &lt;a href=&quot;\nhttp://img203.imageshack.us/img203/9413/tw7y.png&quot; rel=&quot;nofollow&quot; target=&quot;_NEW&quot;&gt;\nhttp://img203.imageshack.us/img203/9413/tw7y.png&lt;/a&gt; &lt;a href=&quot;\nhttp://img842.imageshack.us/img842/5845/p5z.png&quot; rel=&quot;nofollow&quot; target=&quot;_NEW&quot;&gt;\nhttp://img842.imageshack.us/img842/5845/p5z.png&lt;/a&gt; &lt;a href=&quot;\nhttp://img39.imageshack.us/img39/2950/fd6l.png&quot; rel=&quot;nofollow&quot; target=&quot;_NEW&quot;&gt;\nhttp://img39.imageshack.us/img39/2950/fd6l.png&lt;/a&gt;","torrent":{"xt":"urn:btih:b36e08f3bade06f5e10c99063baceb534cf8a8d9","amp;dn":"The.Dyatlov.Pass.Incident.2013.WEBRip+XViD+juggs","amp;tr":["udp%3A%2F%2Ftracker.openbittorrent.com%3A80","udp%3A%2F%2Fopen.demonii.com%3A1337","udp%3A%2F%2Ftracker.coppersurfer.tk%3A6969","udp%3A%2F%2Fexodus.desync.com%3A6969"],"infoHash":"b36e08f3bade06f5e10c99063baceb534cf8a8d9","infoHashBuffer":{"type":"Buffer","data":[179,110,8,243,186,222,6,245,225,12,153,6,59,172,235,83,76,248,168,217]},"announce":[],"urlList":[]}}